<svg xmlns="http://www.w3.org/2000/svg" width="4278" height="2589" viewBox="0 0 4278 2589">
  <g id="Grupo_187" data-name="Grupo 187" transform="translate(399 20116)">
    <g id="Grupo_186" data-name="Grupo 186" transform="translate(0 20)">
      <g id="Grupo_184" data-name="Grupo 184" transform="translate(-149)">
        <g id="Grupo_177" data-name="Grupo 177" transform="translate(-1438 -4876)">
          <g id="Retângulo_118" data-name="Retângulo 118" transform="translate(2497 -14168)" fill="#fff" stroke="#707070" stroke-width="10">
            <rect width="749" height="881" rx="31" stroke="none"/>
            <rect x="5" y="5" width="739" height="871" rx="26" fill="none"/>
          </g>
          <path id="Caminho_590" data-name="Caminho 590" d="M2039.573-13866.211h736.441" transform="translate(464.927 -234)" fill="#fff" stroke="#707070" stroke-width="10"/>
          <path id="Caminho_593" data-name="Caminho 593" d="M2039.573-13866.211h736.441" transform="translate(5280.514 -27216.844) rotate(180)" fill="#fff" stroke="#707070" stroke-width="10"/>
          <path id="Caminho_591" data-name="Caminho 591" d="M2039.573-13866.211h18.853" transform="translate(823.721 -263.423)" fill="#fff" stroke="#707070" stroke-linecap="round" stroke-width="10"/>
          <path id="Caminho_592" data-name="Caminho 592" d="M2039.573-13866.211h18.853" transform="translate(4921.72 -27187.422) rotate(180)" fill="#fff" stroke="#707070" stroke-linecap="round" stroke-width="10"/>
        </g>
        <g id="Grupo_180" data-name="Grupo 180" transform="translate(-1407.634 -5774.634)">
          <circle id="Elipse_147" data-name="Elipse 147" cx="169" cy="169" r="169" transform="translate(2672.634 -13917.366)" fill="#1eeb03"/>
          <path id="União_1" data-name="União 1" d="M65.759,169.916a17.251,17.251,0,0,1-5.915-3.878L5.069,111.263A17.307,17.307,0,0,1,29.545,86.788l43.207,43.207L197.677,5.07a17.307,17.307,0,0,1,24.475,24.476L85.259,166.439a17.324,17.324,0,0,1-19.5,3.477Z" transform="translate(2736.404 -13837.104)" fill="#fff"/>
        </g>
      </g>
      <g id="Grupo_185" data-name="Grupo 185">
        <g id="Grupo_178" data-name="Grupo 178" transform="translate(-1224 -4703)">
          <g id="Retângulo_119" data-name="Retângulo 119" transform="translate(3292 -14515)" fill="#fff" stroke="#707070" stroke-width="10">
            <rect width="1403" height="1011" rx="31" stroke="none"/>
            <rect x="5" y="5" width="1393" height="1001" rx="26" fill="none"/>
          </g>
          <g id="Retângulo_120" data-name="Retângulo 120" transform="translate(3941 -13511)" fill="#fff" stroke="#707070" stroke-width="10">
            <rect width="105" height="163" stroke="none"/>
            <rect x="5" y="5" width="95" height="153" fill="none"/>
          </g>
          <g id="Retângulo_121" data-name="Retângulo 121" transform="translate(3710 -13357)" fill="#fff" stroke="#707070" stroke-width="10">
            <rect width="567" height="70" rx="35" stroke="none"/>
            <rect x="5" y="5" width="557" height="60" rx="30" fill="none"/>
          </g>
          <path id="Caminho_596" data-name="Caminho 596" d="M2039.573-13866.211h1395.5" transform="translate(1259.927 -584)" fill="#fff" stroke="#707070" stroke-width="10"/>
          <path id="Caminho_594" data-name="Caminho 594" d="M0,0H1395.5" transform="translate(4695 -13567.633) rotate(180)" fill="#fff" stroke="#707070" stroke-width="10"/>
          <path id="Caminho_597" data-name="Caminho 597" d="M2039.573-13866.211h18.853" transform="translate(1944.927 -609.423)" fill="#fff" stroke="#707070" stroke-linecap="round" stroke-width="10"/>
        </g>
        <g id="Grupo_182" data-name="Grupo 182" transform="translate(-71.634 -5774.634)">
          <circle id="Elipse_147-2" data-name="Elipse 147" cx="169" cy="169" r="169" transform="translate(2672.634 -13917.366)" fill="#1eeb03"/>
          <path id="União_1-2" data-name="União 1" d="M65.759,169.916a17.251,17.251,0,0,1-5.915-3.878L5.069,111.263A17.307,17.307,0,0,1,29.545,86.788l43.207,43.207L197.677,5.07a17.307,17.307,0,0,1,24.475,24.476L85.259,166.439a17.324,17.324,0,0,1-19.5,3.477Z" transform="translate(2736.404 -13837.104)" fill="#fff"/>
        </g>
      </g>
      <g id="Grupo_183" data-name="Grupo 183">
        <g id="Grupo_179" data-name="Grupo 179" transform="translate(-1421 -4995)">
          <g id="Retângulo_117" data-name="Retângulo 117" transform="translate(1576 -13930)" fill="#fff" stroke="#707070" stroke-width="10">
            <rect width="345" height="643" rx="31" stroke="none"/>
            <rect x="5" y="5" width="335" height="633" rx="26" fill="none"/>
          </g>
          <path id="Caminho_587" data-name="Caminho 587" d="M2039.573-13866.211h329.435" transform="translate(-456.073)" fill="#fff" stroke="#707070" stroke-width="10"/>
          <path id="Caminho_589" data-name="Caminho 589" d="M2039.573-13866.211h59.421" transform="translate(-321.066 -29.423)" fill="#fff" stroke="#707070" stroke-linecap="round" stroke-width="10"/>
          <g id="Elipse_146" data-name="Elipse 146" transform="translate(1721 -13364)" fill="#fff" stroke="#707070" stroke-width="10">
            <circle cx="28" cy="28" r="28" stroke="none"/>
            <circle cx="28" cy="28" r="23" fill="none"/>
          </g>
        </g>
        <g id="Grupo_181" data-name="Grupo 181" transform="translate(-2513.634 -5774.634)">
          <circle id="Elipse_147-3" data-name="Elipse 147" cx="169" cy="169" r="169" transform="translate(2672.634 -13917.366)" fill="#eb0303"/>
          <path id="União_1-3" data-name="União 1" d="M19.468,166.347a17.308,17.308,0,0,1,0-24.475l56.209-56.21L19.468,29.453A17.307,17.307,0,0,1,43.944,4.976l56.209,56.21L156.362,4.978a17.307,17.307,0,1,1,24.476,24.476L124.63,85.662l56.208,56.208a17.307,17.307,0,1,1-24.476,24.476l-56.208-56.208L43.944,166.347a17.307,17.307,0,0,1-24.476,0Z" transform="translate(2741.234 -13834.273)" fill="#fff"/>
        </g>
      </g>
    </g>
    <path id="Caminho_599" data-name="Caminho 599" d="M683.968-17870.2v-2255.15" transform="translate(15 175.851)" fill="none" stroke="#707070" stroke-width="7" stroke-dasharray="50"/>
    <g id="Retângulo_125" data-name="Retângulo 125" transform="translate(-326 -20039)" fill="none" stroke="#707070" stroke-width="7" opacity="0.141">
      <rect width="4132" height="2435" rx="241" stroke="none"/>
      <rect x="3.5" y="3.5" width="4125" height="2428" rx="237.5" fill="none"/>
    </g>
    <g id="Retângulo_126" data-name="Retângulo 126" transform="translate(-399 -20116)" fill="none" stroke="#707070" stroke-width="7">
      <rect width="4278" height="2589" rx="241" stroke="none"/>
      <rect x="3.5" y="3.5" width="4271" height="2582" rx="237.5" fill="none"/>
    </g>
  </g>
</svg>
